<svg xmlns="http://www.w3.org/2000/svg" xmlns:xlink="http://www.w3.org/1999/xlink" width="170" height="37.648" viewBox="0 0 170 37.648"><defs><clipPath id="clip-path"><rect id="Rectangle_2" data-name="Rectangle 2" width="170" height="37.648" fill="#006128"></rect></clipPath></defs><g id="Group_13" data-name="Group 13" transform="translate(0 0)"><g id="Group_1" data-name="Group 1" transform="translate(0 0)" clip-path="url(#clip-path)"><path id="Path_1" data-name="Path 1" d="M11.573,11.334a13.164,13.164,0,0,1,9.847,4.081,13.979,13.979,0,0,1,3.959,10.131A13.979,13.979,0,0,1,21.42,35.677a13.164,13.164,0,0,1-9.847,4.081H5.148A5.148,5.148,0,0,1,0,34.611V16.482a5.148,5.148,0,0,1,5.148-5.148Zm0,21.4A6.359,6.359,0,0,0,16.4,30.764a7.271,7.271,0,0,0,1.868-5.218A7.274,7.274,0,0,0,16.4,20.328a6.362,6.362,0,0,0-4.832-1.969H9a1.524,1.524,0,0,0-1.524,1.524V31.21A1.524,1.524,0,0,0,9,32.734Z" transform="translate(0 -6.722)" fill="#006128"></path><path id="Path_2" data-name="Path 2" d="M92.165,32.937H97.85a3.35,3.35,0,0,1,3.35,3.35v.122a3.35,3.35,0,0,1-3.35,3.35H91.205a8.278,8.278,0,0,1-8.278-8.278V19.612a8.278,8.278,0,0,1,8.278-8.278h6.441a3.35,3.35,0,0,1,3.35,3.35v.081a3.35,3.35,0,0,1-3.35,3.35H92.165a1.969,1.969,0,0,0,0,3.939H98.3a3.35,3.35,0,1,1,0,6.7H92.165A1.969,1.969,0,0,0,90.2,30.723v.244a1.969,1.969,0,0,0,1.969,1.969" transform="translate(-49.184 -6.722)" fill="#006128"></path><path id="Path_3" data-name="Path 3" d="M276.995,39.48a14.437,14.437,0,0,1-14.822-14.822,14.836,14.836,0,0,1,21.968-12.994,14.814,14.814,0,0,1,1.795,1.171,3.564,3.564,0,1,1-4.4,5.6,6.537,6.537,0,0,0-.944-.622,8.038,8.038,0,0,0-9.1,1.259,7.63,7.63,0,0,0-2.092,5.584,7.628,7.628,0,0,0,2.092,5.584,8.039,8.039,0,0,0,9.1,1.259,6.347,6.347,0,0,0,.943-.625,3.565,3.565,0,0,1,4.026-.309l.029.017a3.562,3.562,0,0,1,.4,5.9,14.273,14.273,0,0,1-1.824,1.194,14.571,14.571,0,0,1-7.167,1.807" transform="translate(-155.494 -5.834)" fill="#006128"></path><path id="Path_4" data-name="Path 4" d="M370.021,35.2a15.2,15.2,0,0,1-21.156,0,14.255,14.255,0,0,1-4.325-10.538,14.257,14.257,0,0,1,4.325-10.538,15.2,15.2,0,0,1,21.156,0,14.257,14.257,0,0,1,4.325,10.538A14.255,14.255,0,0,1,370.021,35.2M353.961,30.2a7.676,7.676,0,0,0,13.156-5.543,7.676,7.676,0,1,0-15.349,0,7.468,7.468,0,0,0,2.193,5.543" transform="translate(-204.345 -5.834)" fill="#006128"></path><path id="Path_5" data-name="Path 5" d="M206.379,13.288l-3.772,3.772,3.728-3.73c.015-.014.029-.029.044-.042" transform="translate(-120.165 -7.881)" fill="#006128"></path><path id="Path_6" data-name="Path 6" d="M216.034,71.706a4.675,4.675,0,0,1-3.317-1.374l-4.9-4.9a4.691,4.691,0,1,1,6.634-6.634l4.9,4.9a4.691,4.691,0,0,1-3.317,8.008" transform="translate(-122.44 -34.058)" fill="#006128"></path><path id="Path_7" data-name="Path 7" d="M185.241,8.009l-4.074,4.074-3.73,3.73-.013.013L156.989,36.258a4.691,4.691,0,0,1-6.635-6.634l11.29-11.29a13.631,13.631,0,0,1-3.47-2.523l-7.789-7.787a4.691,4.691,0,1,1,6.635-6.635l7.789,7.787a4.234,4.234,0,0,0,5.942.05c.017-.014.033-.031.05-.048l3.772-3.772,4.032-4.032a4.691,4.691,0,0,1,6.634,6.635" transform="translate(-88.36 0)" fill="#006128"></path></g></g></svg>