<svg xmlns="http://www.w3.org/2000/svg" xmlns:xlink="http://www.w3.org/1999/xlink" width="235.142" height="52.075" viewBox="0 0 235.142 52.075"><defs><clipPath id="clip-path"><rect id="Rectangle_2" data-name="Rectangle 2" width="235.142" height="52.075" fill="#fff"></rect></clipPath></defs><g id="Group_13060" data-name="Group 13060" transform="translate(0 0)"><g id="Group_1" data-name="Group 1" transform="translate(0 0)" clip-path="url(#clip-path)"><path id="Path_1" data-name="Path 1" d="M16.007,11.334a18.208,18.208,0,0,1,13.62,5.645A19.336,19.336,0,0,1,35.1,30.992a19.336,19.336,0,0,1-5.476,14.014,18.208,18.208,0,0,1-13.62,5.645H7.12A7.12,7.12,0,0,1,0,43.53V18.454a7.12,7.12,0,0,1,7.12-7.12Zm0,29.6a8.8,8.8,0,0,0,6.684-2.724,10.058,10.058,0,0,0,2.584-7.218,10.061,10.061,0,0,0-2.584-7.217,8.8,8.8,0,0,0-6.684-2.724H12.442a2.108,2.108,0,0,0-2.108,2.108V38.826a2.108,2.108,0,0,0,2.108,2.108Z" transform="translate(0 -4.955)" fill="#fff"></path><path id="Path_2" data-name="Path 2" d="M95.7,41.214h7.863a4.634,4.634,0,0,1,4.634,4.634v.168a4.634,4.634,0,0,1-4.634,4.634h-9.19A11.45,11.45,0,0,1,82.927,39.2V22.784a11.45,11.45,0,0,1,11.451-11.45h8.91a4.634,4.634,0,0,1,4.634,4.634v.112a4.634,4.634,0,0,1-4.634,4.634H95.7a2.724,2.724,0,0,0,0,5.448h8.481a4.634,4.634,0,0,1,0,9.267H95.7a2.724,2.724,0,0,0-2.724,2.724v.337A2.724,2.724,0,0,0,95.7,41.214" transform="translate(-36.253 -4.955)" fill="#fff"></path><path id="Path_3" data-name="Path 3" d="M282.674,50.838a19.969,19.969,0,0,1-20.5-20.5,20.521,20.521,0,0,1,30.386-17.973,20.489,20.489,0,0,1,2.483,1.62,4.929,4.929,0,1,1-6.092,7.75,9.038,9.038,0,0,0-1.305-.861,11.118,11.118,0,0,0-12.581,1.741,10.554,10.554,0,0,0-2.893,7.723,10.552,10.552,0,0,0,2.893,7.723A11.119,11.119,0,0,0,287.645,39.8a8.78,8.78,0,0,0,1.3-.865,4.931,4.931,0,0,1,5.569-.427l.039.023a4.927,4.927,0,0,1,.553,8.154,19.744,19.744,0,0,1-2.523,1.652,20.155,20.155,0,0,1-9.914,2.5" transform="translate(-114.615 -4.3)" fill="#fff"></path><path id="Path_4" data-name="Path 4" d="M379.785,44.912a21.027,21.027,0,0,1-29.263,0,19.717,19.717,0,0,1-5.982-14.576,19.719,19.719,0,0,1,5.982-14.576,21.027,21.027,0,0,1,29.263,0,19.72,19.72,0,0,1,5.982,14.576,19.717,19.717,0,0,1-5.982,14.576M357.571,38a10.618,10.618,0,0,0,18.2-7.667,10.618,10.618,0,1,0-21.231,0A10.33,10.33,0,0,0,357.571,38" transform="translate(-150.624 -4.3)" fill="#fff"></path><path id="Path_5" data-name="Path 5" d="M207.824,13.288,202.607,18.5l5.156-5.159c.02-.02.041-.04.061-.057" transform="translate(-88.574 -5.809)" fill="#fff"></path><path id="Path_6" data-name="Path 6" d="M219.709,77.179a6.467,6.467,0,0,1-4.588-1.9L208.343,68.5a6.488,6.488,0,1,1,9.176-9.176L224.3,66.1a6.489,6.489,0,0,1-4.588,11.077" transform="translate(-90.251 -25.104)" fill="#fff"></path><path id="Path_7" data-name="Path 7" d="M199.135,11.078,193.5,16.713l-5.159,5.159-.017.017L160.058,50.152a6.489,6.489,0,0,1-9.177-9.176L166.5,25.359a18.854,18.854,0,0,1-4.8-3.49L150.924,11.1A6.489,6.489,0,0,1,160.1,1.921l10.774,10.771a5.856,5.856,0,0,0,8.219.069c.023-.02.046-.043.069-.066l5.217-5.217L189.958,1.9a6.489,6.489,0,0,1,9.176,9.177" transform="translate(-65.131 0)" fill="#fff"></path></g></g></svg>